<?xml version="1.0" encoding="utf-8"?>
<!-- Generator: Adobe Illustrator 23.0.1, SVG Export Plug-In . SVG Version: 6.00 Build 0)  -->
<svg version="1.1" id="Layer_1" xmlns="http://www.w3.org/2000/svg" xmlns:xlink="http://www.w3.org/1999/xlink" x="0px" y="0px"
	 viewBox="0 0 800 364.8" style="enable-background:new 0 0 800 364.8;" xml:space="preserve">
<style type="text/css">
	.st0{fill:#02AFEF;}
	.st1{fill:#FFFFFF;}
	.st2{fill:#FCFDFE;}
</style>
<path class="st0" d="M289.2,156.9c-6.2-10.6-15.5-15.7-27.8-15.2c-12.1,0.5-20.7,6.5-25.3,17.4c-8,18.9-7.8,38,1.1,56.6
	c5.2,10.9,14.5,16.3,26.6,16.2c12.2-0.1,20.9-5.9,26.4-16.6c4.6-9,5.9-18.7,6.1-28.4C296.1,176.2,294.6,166,289.2,156.9z"/>
<path class="st0" d="M764.7,78.4C748.4,71,732.8,73.5,719,85c-2.8,2.3-4.3,2-7.2,0.4c-40.6-24-81.1-23.8-121.4,0.7
	c-2.8,1.7-4.3,1.5-6.8-0.4c-14.8-11-30.8-12.9-47.5-5.2c-4,1.8-5.6,1.6-8-2.2C491,20.4,408.4,17,367,71.6c-2.2,2.9-3.1,3.5-6.2,0.7
	c-19.7-18-43-24.6-69.3-20.4c-9.4,1.5-18.2,5.1-27.2,9.8c-0.2-1.4-0.3-2-0.4-2.7c-2.4-28.2-25.3-49.6-52.7-49.3
	c-28.6,0.3-51.2,21.6-52.9,50.1c-0.2,3.7-0.9,4.8-4.8,4.3c-20-2.4-39.2,0.6-57.7,8.5c-2.2,0.9-3.9,1-6.1-0.1c-6-3-12.5-4.7-19.2-5.3
	C46,65,23.3,77.9,12.6,99.9c-10.6,22-6.5,47.7,10.7,65.7c1.9,2,2.8,3.8,2.4,6.6c-0.9,7.3-0.3,14.7,0.7,21.9
	c9,64.2,65.4,104.6,123.5,100h0c2.3,12.5,18.5,75,109.8,42.7c14.5-5.1,24.4-9.8,30.5-14c20.8,35.8,69.8,43.5,100.5,14.2
	c7.5-7.1,12.8-15.6,16.5-25.2c0.6,0.3,0.9,0.4,1.1,0.6c0.5,0.6,0.9,1.4,1.4,2.1c13.6,20.2,32.7,29.9,56.8,26.8
	c21-2.7,36-13.6,44.7-31.5l0,0c0,0,103,33.2,125.3-17.7c2.2,0.3,4.3,0.5,6.5,0.6c73.5,4.7,130.8-57.9,119.5-130.7
	c-0.5-3.3,0.3-4.5,3.1-5.9c16.1-8.4,24.6-21.8,24.1-40C789.4,98.7,780.6,85.6,764.7,78.4z M191.6,221.9c-4.9,11-12.6,19.4-23.3,24.3
	c-31.7,14.3-62.6,11.6-92.1-6.3c-7.9-4.8-13.5-11.9-13.5-22c0-6.4,2.1-11.9,8.1-14.9c6.1-3.1,12.2-2.7,18,1.2
	c4.5,3,7.9,7.1,11.8,10.8c11.1,10.7,24.2,13.3,38.8,10c3.1-0.7,6-2.1,8.5-4.1c7.5-6.2,6.4-16.2-2.4-20.3c-7.1-3.3-14.9-4.5-22.5-6.5
	c-10.3-2.6-20.8-4.7-30.9-8.2c-30.1-10.5-33.2-34.7-26.9-54c4.6-14.1,15.8-22.1,29.4-26.4c25.8-8.3,51.3-6.3,75.8,5.3
	c5.2,2.4,9.7,5.9,13,10.7c5.3,7.6,4.5,17.6-1.9,23.8c-6.2,5.9-15.3,6.2-22.9,0.7c-1.7-1.3-3.4-2.7-5-4.2
	c-11-10.9-24.2-12.3-38.5-9.4c-1.3,0.3-2.6,0.7-3.8,1.3c-4.4,1.9-7.5,4.8-7.6,10.1c-0.1,5.2,2.7,8.5,7.2,10.4
	c8.5,3.7,17.6,4.8,26.5,7c8.9,2.2,17.8,4.1,26.4,7.6c11.7,4.8,21.9,11.3,28.1,23.3L191.6,221.9z M336.2,201.9
	c-0.3,3.4-0.8,6.7-1.5,9.7c-6.7,25.6-19.9,45.4-47.7,51.2c-22.6,4.7-38.6-1-53.4-18.5c-1.1,1.3-0.6,2.9-0.6,4.2c0,9.9,0,19.9,0,29.8
	c0,3.4,0,6.9,0,10.3c0,0.3,0,0.7,0,1c0,2.5,0,4.9-0.1,7.4c0,0.1,0,0.2,0,0.3c-0.3,15.7-9.8,23.4-25.5,20.8
	c-8.6-1.4-14.3-7.4-15.2-16.1c-0.3-2.6-0.2-5.3-0.2-8v-15.1c0-42.6,0-85.3,0-127.9c0-0.5,0.1-1,0.1-1.5c0,0,0,0,0,0c0,0,0-0.1,0-0.2
	c0.1-2.5,1.4-29.6,4.2-34.3l0,0v0c5.4-6.5,13.1-6.1,20.5-4.5c6.9,1.5,10.6,6.5,11.6,13.5c0.5,3.4,0.6,6.8,0.9,10.5
	c12.8-29.5,57.3-32.5,83.4-10.7c4.5,3.8,8.4,8.2,11.6,13.5c4.5,7.5,7.8,15.4,9.9,23.9c0.3,1.1,0.6,2.1,1.2,4.1
	C335.4,165.2,337.8,185.2,336.2,201.9z M479.6,280.4c-12.4,0-20-7-20.4-19.1c-0.2-4.6,0-9.2-0.4-14l0.4-30.1v-4.6c0-25,0-50,0-74.9
	c-0.1,1.4-0.1,2.3-0.1,2.7c0-0.5-0.1-1.1-0.6-1.6c-1.7,1-1.6,2.9-2.1,4.3c-15.1,42.5-30,85.1-45.1,127.6c-3,8.3-6.6,16.4-12,23.5
	c-10.4,13.6-30.9,19.4-46.8,13.3c-9.3-3.5-13.7-10.9-12.2-20.4c1.3-7.6,7.8-12.5,17.3-13c2.2-0.1,4.3,0,6.5,0
	c9.4-0.3,14.9-8.3,11.8-17.3c-14.4-41.2-28.9-82.5-43.3-123.7c-0.6-1.6-1-3.2-1.4-4.7c-2.5-11.1,0.8-18.2,0.8-18.2
	c3.7-4.7,7.9-8.6,14.1-9.4c12.5-1.8,21.5,4.2,25,16.8c8.1,29.4,16.2,58.7,24.3,88.1c0.5,1.7,0.5,3.5,2.3,5.6
	c2.3-8.4,4.5-16.4,6.6-24.3c6-22.3,12-44.7,18.1-67c0.7-2.7,1.6-5.4,2.8-8c6.1-12.8,22.5-15.6,32.5-5.4c0.7,0.7,1.2,1.2,1.6,1.5
	c0-5.4,0-10.8,0-16.1c0-16.2,11.2-24.7,26.9-20.8c9.1,2.3,14,9,14,19.8c0.1,29,0,58,0,87v6.2c2-2.2,3.2-3.4,4.4-4.7
	c13.6-15.1,27.1-30.3,40.8-45.3c10.4-11.4,22.1-11.1,32.1,0.3c0.3,0.4,0.8,0.6,1.3,1.1c0,0,4.8,12.5-2.3,20.2c0,0-0.1,0.1-0.1,0.1
	c-0.2,0.3-0.4,0.6-0.7,0.8c-9.4,9.9-18.8,19.9-28.3,29.6c-2.5,2.6-2.6,4.2-0.4,7c13.1,17.3,25.9,34.7,38.9,52.1
	c4.2,5.6,6.5,11.7,5,18.7c-0.1,0.4-0.2,0.8-0.3,1.2c0,0.2-0.1,0.3-0.1,0.5c0,0.1,0,0.2-0.1,0.3c0,0.2-0.1,0.4-0.2,0.5
	c0,0.2-0.1,0.3-0.2,0.5c0,0.1,0,0.2-0.1,0.2c-0.1,0.3-0.2,0.6-0.4,0.9c0,0.1-0.1,0.2-0.1,0.2c-0.1,0.3-0.3,0.6-0.4,0.9
	c-0.2,0.5-0.4,0.9-0.7,1.3c-0.1,0.2-0.2,0.4-0.3,0.5c-0.2,0.3-0.4,0.7-0.6,1c-0.1,0.2-0.3,0.5-0.5,0.7c0,0.1-0.1,0.2-0.2,0.2
	c-0.1,0.1-0.2,0.2-0.3,0.3c-0.1,0.2-0.2,0.3-0.4,0.4c-0.2,0.3-0.4,0.5-0.7,0.7c0,0-0.1,0.1-0.2,0.1c-0.3,0.3-0.5,0.5-0.8,0.8
	c-1.1,0.9-2.2,1.7-3.5,2.4c-0.2,0.1-0.3,0.2-0.5,0.2c-0.4,0.2-0.7,0.3-1.1,0.5c-0.1,0.1-0.3,0.1-0.4,0.2c-0.8,0.3-1.7,0.6-2.7,0.8
	c-2,0.5-3.9,0.7-5.8,0.7c-0.4,0-0.8,0-1.2,0c-0.4,0-0.8,0-1.2-0.1h0c-0.4,0-0.8-0.1-1.2-0.2c-0.4-0.1-0.8-0.1-1.2-0.2
	c-1.4-0.3-2.7-0.8-4-1.5c-0.3-0.1-0.6-0.3-0.8-0.5c-0.7-0.4-1.4-0.8-2.1-1.4c-0.2-0.1-0.4-0.3-0.6-0.5c-0.8-0.6-1.5-1.3-2.2-2
	c0,0,0,0-0.1-0.1c-0.1-0.1-0.3-0.3-0.4-0.4c-0.1-0.1-0.2-0.3-0.4-0.4c-0.2-0.2-0.3-0.4-0.5-0.6c-7-9.1-13.4-18.7-20.1-28
	c-6-8.4-12.1-16.8-17.8-25.3c-2-2.9-3-2.4-5.6-0.6c-9,6-12.9,13.8-11.3,24.8c0.9,5.9,0.3,12,0.1,18
	C499.6,273.3,491.9,280.4,479.6,280.4z M731.1,171.2c-0.4,9.8-4.1,13.8-13.8,14c-30,0.4-60,0.3-90,0.4c-7.3,0-7.3,0-6.3,7.1
	c2.4,17.2,15.9,29.1,34,30.1c13.3,0.8,25.1-2.6,34.8-12c1.5-1.5,3.2-2.9,5-4.2c6.8-5.1,15.1-5.2,21.3-0.5c6.4,4.8,8.3,12.5,5.1,20.6
	c-3.2,8.1-9.5,13.2-16.9,17c-17.6,9.2-36.4,12.4-56.2,10.7c-7.5-0.6-14.8-2-21.9-4.6c-21-7.4-35.2-21.6-42.5-42.7
	c-0.4-1.1-0.8-2.1-1.2-3.1l0,0c-0.2-0.5-0.5-1-0.7-1.5c-0.1-0.3-0.2-0.5-0.3-0.8c-8.2-20.3,0.5-45.6,0.5-45.6
	c1.3-3.9,2.1-6.8,3.2-9.7c0.5-1.2,1-2.4,1.5-3.6c11.1-25.1,31.2-38.5,58.6-41.7c23-2.6,44.7,1.3,62.8,16.9
	C724.3,132,732,149.9,731.1,171.2z M738.6,108.2c-5.6-1.2-5.3,2.4-5.2,6.1c0.1,4,0,8,0.1,12c0,2-0.4,3.1-2.7,3.1
	c-2.4,0-3.2-0.8-3.2-3.2c0.2-4.7-0.1-9.3,0.1-14c0.1-2.9-0.5-4.4-3.8-4.1c-1.6,0.2-3.8,0.9-3.9-2.2c-0.1-3.4,2.3-2.5,4.2-2.6
	c1.5-0.1,3.1-0.1,4.6,0c0.6,0,1.3,0,1.9,0c0.8,0,1.6,0,2.3,0c1.9,0,3.8,0,5.7,0c1.9,0,2.6,0.8,2.6,2.7
	C741.1,107.9,740.1,108.5,738.6,108.2z M771.9,125.7c0,1.8,0.3,3.7-2.5,3.8c-3.2,0.1-2.9-1.9-2.9-4c0-3.6,0-7.3,0-10.9
	c-0.4,0-0.8,0-1.2-0.1c-1.4,4-2.9,8-4.2,12.1c-0.5,1.5-0.9,2.8-2.9,2.9c-2.2,0.1-2.8-1.1-3.4-2.9c-1.3-3.9-2.8-7.7-4.2-11.5
	c-0.4,0.1-0.8,0.1-1.2,0.2c0,3.5,0,7.1,0,10.7c0,2-0.1,3.5-2.8,3.5c-2.9,0-2.6-1.9-2.6-3.7c0-6.2,0-12.3,0-18.5
	c0-1.7-0.7-4.1,2.3-3.9c2.4,0.2,5.4-1.4,6.6,2.6c1.4,4.6,3.1,9.1,5.1,15.1c1.8-5.5,3.6-9.7,4.5-14c0.9-4.4,3.9-3.7,6.8-3.7
	c3.8,0.1,2.3,3,2.4,4.8C772,114,771.9,119.8,771.9,125.7z"/>
<path class="st1" d="M191.9,191.8l-0.4,30.1c-4.9,11-12.6,19.4-23.3,24.3c-31.7,14.3-62.6,11.6-92.1-6.3c-7.9-4.8-13.5-11.9-13.5-22
	c0-6.4,2.1-11.9,8.1-14.9c6.1-3.1,12.2-2.7,18,1.2c4.5,3,7.9,7.1,11.8,10.8c11.1,10.7,24.2,13.3,38.8,10c3.1-0.7,6-2.1,8.5-4.1
	c7.5-6.2,6.4-16.2-2.4-20.3c-7.1-3.3-14.9-4.5-22.5-6.5c-10.3-2.6-20.8-4.7-30.9-8.2c-30.1-10.5-33.2-34.7-26.9-54
	c4.6-14.1,15.8-22.1,29.4-26.4c25.8-8.3,51.3-6.3,75.8,5.3c5.2,2.4,9.7,5.9,13,10.7c5.3,7.6,4.5,17.6-1.9,23.8
	c-6.2,5.9-15.3,6.2-22.9,0.7c-1.7-1.3-3.4-2.7-5-4.2c-11-10.9-24.2-12.3-38.5-9.4c-1.3,0.3-2.6,0.7-3.8,1.3
	c-4.4,1.9-7.5,4.8-7.6,10.1c-0.1,5.2,2.7,8.5,7.2,10.4c8.5,3.7,17.6,4.8,26.5,7c8.9,2.2,17.8,4.1,26.4,7.6
	C175.5,173.3,185.7,179.8,191.9,191.8z"/>
<path class="st1" d="M708.2,118.2c-18.1-15.6-39.8-19.5-62.8-16.9c-27.4,3.1-47.5,16.6-58.6,41.7c-0.5,1.2-1,2.4-1.5,3.6
	c-1.1,2.8-1.9,5.8-3.2,9.7h0.7c-0.2,0.2-0.4,0.5-0.6,0.7c0,0,0,0,0,0c0-0.5-0.1-0.7-0.1-0.7s-8.7,25.3-0.5,45.6
	c0.1,0.3,0.2,0.6,0.3,0.8c0.2,0.5,0.5,1,0.7,1.5l0,0c0.4,1,0.8,2.1,1.2,3.1c7.3,21.1,21.5,35.3,42.5,42.7c7.1,2.5,14.5,3.9,21.9,4.6
	c19.7,1.6,38.5-1.5,56.2-10.7c7.4-3.8,13.7-9,16.9-17c3.2-8.2,1.3-15.8-5.1-20.6c-6.3-4.8-14.6-4.6-21.3,0.5c-1.7,1.3-3.4,2.7-5,4.2
	c-9.7,9.5-21.5,12.8-34.8,12c-18.1-1.1-31.7-13-34-30.1c-1-7.1-1-7.1,6.3-7.1c30-0.1,60-0.1,90-0.4c9.8-0.1,13.4-4.2,13.8-14
	C732,149.9,724.3,132,708.2,118.2z M688.6,162c-10.8-0.1-21.6,0-32.5,0c-10.7,0-21.3,0-32,0c-2,0-3.5,0.1-3-2.9
	c4.2-24.8,34.2-38.1,55.3-24.3c8.5,5.6,13.3,13.8,15.5,23.6C692.6,161.3,691.4,162,688.6,162z"/>
<path class="st1" d="M582.8,156.2c-0.2,0.2-0.4,0.5-0.6,0.7c0,0,0,0,0,0c0-0.5-0.1-0.7-0.1-0.7H582.8z"/>
<path class="st2" d="M771.9,125.7c0,1.8,0.3,3.7-2.5,3.8c-3.2,0.1-2.9-1.9-2.9-4c0-3.6,0-7.3,0-10.9c-0.4,0-0.8,0-1.2-0.1
	c-1.4,4-2.9,8-4.2,12.1c-0.5,1.5-0.9,2.8-2.9,2.9c-2.2,0.1-2.8-1.1-3.4-2.9c-1.3-3.9-2.8-7.7-4.2-11.5c-0.4,0.1-0.8,0.1-1.2,0.2
	c0,3.5,0,7.1,0,10.7c0,2-0.1,3.5-2.8,3.5c-2.9,0-2.6-1.9-2.6-3.7c0-6.2,0-12.3,0-18.5c0-1.7-0.7-4.1,2.3-3.9
	c2.4,0.2,5.4-1.4,6.6,2.6c1.4,4.6,3.1,9.1,5.1,15.1c1.8-5.5,3.6-9.7,4.5-14c0.9-4.4,3.9-3.7,6.8-3.7c3.8,0.1,2.3,3,2.4,4.8
	C772,114,771.9,119.8,771.9,125.7z"/>
<path class="st2" d="M741.1,106c0,1.8-1,2.5-2.5,2.2c-5.6-1.2-5.3,2.4-5.2,6.1c0.1,4,0,8,0.1,12c0,2-0.4,3.1-2.7,3.1
	c-2.4,0-3.2-0.8-3.2-3.2c0.2-4.7-0.1-9.3,0.1-14c0.1-2.9-0.5-4.4-3.8-4.1c-1.6,0.2-3.8,0.9-3.9-2.2c-0.1-3.4,2.3-2.5,4.2-2.6
	c1.5-0.1,3.1-0.1,4.6,0c0.6,0,1.3,0,1.9,0c0.8,0,1.6,0,2.3,0c1.9,0,3.8,0,5.7,0C740.5,103.3,741.2,104.1,741.1,106z"/>
<path class="st0" d="M688.6,162c-10.8-0.1-21.6,0-32.5,0c-10.7,0-21.3,0-32,0c-2,0-3.5,0.1-3-2.9c4.2-24.8,34.2-38.1,55.3-24.3
	c8.5,5.6,13.3,13.8,15.5,23.6C692.6,161.3,691.4,162,688.6,162z"/>
<path class="st1" d="M582.8,156.2c-0.2,0.2-0.4,0.5-0.6,0.7c0,0,0,0,0,0c0-0.5-0.1-0.7-0.1-0.7H582.8z"/>
<path class="st1" d="M335.4,165.2c-0.6-2-0.9-3-1.2-4.1c-2.1-8.5-5.4-16.4-9.9-23.9c-3.2-5.2-7.1-9.7-11.6-13.5
	c-26.1-21.9-70.6-18.8-83.4,10.7c-0.3-3.7-0.4-7.2-0.9-10.5c-1-6.9-4.7-12-11.6-13.5c-7.4-1.6-15.1-1.9-20.5,4.5v0l0,0
	c-2.8,4.8-4.1,31.8-4.2,34.3c0,0.1,0,0.1,0,0.2c0,0,0,0,0,0c0,0.5-0.1,1-0.1,1.5c0,42.6,0,85.3,0,127.9V294c0,2.7,0,5.3,0.2,8
	c0.9,8.7,6.6,14.7,15.2,16.1c15.7,2.6,25.2-5.1,25.5-20.8c0-0.1,0-0.2,0-0.3c0-2.5,0-5,0.1-7.4c0-0.3,0-0.7,0-1c0-3.4,0-6.9,0-10.3
	c0-9.9,0-19.9,0-29.8c0-1.4-0.5-2.9,0.6-4.2c14.9,17.4,30.9,23.2,53.4,18.5c27.8-5.8,41-25.6,47.7-51.2c0.7-2.9,1.2-6.2,1.5-9.7
	C337.8,185.2,335.4,165.2,335.4,165.2z M290.1,215.3c-5.5,10.8-14.3,16.5-26.4,16.6c-12.1,0.1-21.4-5.2-26.6-16.2
	c-8.9-18.6-9-37.7-1.1-56.6c4.6-10.8,13.2-16.9,25.3-17.4c12.3-0.5,21.6,4.6,27.8,15.2c5.4,9.2,6.9,19.3,7.1,30
	C296,196.6,294.7,206.3,290.1,215.3z"/>
<path class="st1" d="M590.7,264.2c-0.1,0.4-0.2,0.8-0.3,1.2c0,0.2-0.1,0.3-0.1,0.5c0,0.1,0,0.2-0.1,0.3c0,0.2-0.1,0.4-0.2,0.5
	c0,0.2-0.1,0.3-0.2,0.5c0,0.1,0,0.2-0.1,0.2c-0.1,0.3-0.2,0.6-0.4,0.9c0,0.1-0.1,0.2-0.1,0.2c-0.1,0.3-0.3,0.6-0.4,0.9
	c-0.2,0.5-0.4,0.9-0.7,1.3c-0.1,0.2-0.2,0.4-0.3,0.5c-0.2,0.3-0.4,0.7-0.6,1c-0.1,0.2-0.3,0.5-0.5,0.7c0,0.1-0.1,0.2-0.2,0.2
	c-0.1,0.1-0.2,0.2-0.3,0.3c-0.1,0.2-0.2,0.3-0.4,0.4c-0.2,0.3-0.4,0.5-0.7,0.7c0,0-0.1,0.1-0.2,0.1c-0.3,0.3-0.5,0.5-0.8,0.8
	c-1.1,0.9-2.2,1.7-3.5,2.4c-0.2,0.1-0.3,0.2-0.5,0.2c-0.4,0.2-0.7,0.3-1.1,0.5c-0.1,0.1-0.3,0.1-0.4,0.2c-0.8,0.3-1.7,0.6-2.7,0.8
	c-2,0.5-3.9,0.7-5.8,0.7c-0.4,0-0.8,0-1.2,0c-0.4,0-0.8,0-1.2-0.1h0c-0.4,0-0.8-0.1-1.2-0.2c-0.4-0.1-0.8-0.1-1.2-0.2
	c-1.4-0.3-2.7-0.8-4-1.5c-0.3-0.1-0.6-0.3-0.8-0.5c-0.7-0.4-1.4-0.8-2.1-1.4c-0.2-0.1-0.4-0.3-0.6-0.5c-0.8-0.6-1.5-1.3-2.2-2
	c0,0,0,0-0.1-0.1c-0.1-0.1-0.3-0.3-0.4-0.4c-0.1-0.1-0.2-0.3-0.4-0.4c-0.2-0.2-0.3-0.4-0.5-0.6c-7-9.1-13.4-18.7-20.1-28
	c-6-8.4-12.1-16.8-17.8-25.3c-2-2.9-3-2.4-5.6-0.6c-9,6-12.9,13.8-11.3,24.8c0.9,5.9,0.3,12,0.1,18c-0.4,12-8.1,19.1-20.5,19.1
	c-12.4,0-20-7-20.4-19.1c-0.2-4.6,0-9.2-0.4-14l0.4-30.1v-4.6c0-25,0-50,0-74.9c-0.1,1.4-0.1,2.3-0.1,2.7c0-0.5-0.1-1.1-0.6-1.6
	c-1.7,1-1.6,2.9-2.1,4.3c-15.1,42.5-30,85.1-45.1,127.6c-3,8.3-6.6,16.4-12,23.5c-10.4,13.6-30.9,19.4-46.8,13.3
	c-9.3-3.5-13.7-10.9-12.2-20.4c1.3-7.6,7.8-12.5,17.3-13c2.2-0.1,4.3,0,6.5,0c9.4-0.3,14.9-8.3,11.8-17.3
	c-14.4-41.2-28.9-82.5-43.3-123.7c-0.6-1.6-1-3.2-1.4-4.7c-2.5-11.1,0.8-18.2,0.8-18.2c3.7-4.7,7.9-8.6,14.1-9.4
	c12.5-1.8,21.5,4.2,25,16.8c8.1,29.4,16.2,58.7,24.3,88.1c0.5,1.7,0.5,3.5,2.3,5.6c2.3-8.4,4.5-16.4,6.6-24.3
	c6-22.3,12-44.7,18.1-67c0.7-2.7,1.6-5.4,2.8-8c6.1-12.8,22.5-15.6,32.5-5.4c0.7,0.7,1.2,1.2,1.6,1.5c0-5.4,0-10.8,0-16.1
	c0-16.2,11.2-24.7,26.9-20.8c9.1,2.3,14,9,14,19.8c0.1,29,0,58,0,87v6.2c2-2.2,3.2-3.4,4.4-4.7c13.6-15.1,27.1-30.3,40.8-45.3
	c10.4-11.4,22.1-11.1,32.1,0.3c0.3,0.4,0.8,0.6,1.3,1.1c0,0,4.8,12.5-2.3,20.2c0,0-0.1,0.1-0.1,0.1c-0.2,0.3-0.4,0.6-0.7,0.8
	c-9.4,9.9-18.8,19.9-28.3,29.6c-2.5,2.6-2.6,4.2-0.4,7c13.1,17.3,25.9,34.7,38.9,52.1C589.9,251.1,592.2,257.3,590.7,264.2z"/>
</svg>
